<svg width="351" height="68" viewBox="0 0 351 68" fill="none" xmlns="http://www.w3.org/2000/svg">
<path d="M42.5165 42.1141H17.725L16.0369 46.2558C13.5342 52.2524 12.2779 56.1684 12.2779 57.9939C12.2779 59.947 12.9453 61.4388 14.2703 62.4497C15.6051 63.4606 17.3128 63.9612 19.3935 63.9612V66.1792H0V63.9612C2.88547 63.5097 5.03485 62.489 6.44814 60.9088C7.86143 59.3189 9.55934 55.9721 11.5517 50.8784C11.7087 50.3975 12.4841 48.5327 13.8581 45.294L32.8394 0H34.7139L56.5119 51.8304L59.4955 58.6613C60.1728 60.2022 61.0757 61.4094 62.2142 62.2927C63.3527 63.176 65.0604 63.7256 67.3373 63.9513V66.1694H41.6822V63.9513C44.8229 63.9513 46.9526 63.7158 48.0617 63.2545C49.1707 62.7932 49.7203 61.8707 49.7203 60.4868C49.7203 59.7802 48.9842 57.6799 47.5022 54.1859L42.4968 42.1042L42.5165 42.1141ZM41.692 39.9451L30.1404 12.1307L18.6378 39.9451H41.692Z" fill="#111319"/>
<path d="M79.2037 25.1742H80.4992C81.2353 27.1665 81.6573 29.8753 81.7554 33.3104C84.0618 30.582 86.486 28.5406 89.0182 27.196C91.5503 25.8514 94.2002 25.1742 96.9581 25.1742C100.099 25.1742 102.68 25.8318 104.682 27.1469C106.684 28.4621 107.98 30.0716 108.559 31.9855C109.138 33.8993 109.423 36.6768 109.423 40.3376V52.6548C109.423 57.2088 109.501 59.9863 109.668 60.9775C109.825 61.9786 110.335 62.7245 111.179 63.2152C112.033 63.7158 113.594 63.9611 115.871 63.9611V66.1792H95.7019V63.9611H96.6146C98.921 63.9611 100.432 63.6275 101.139 62.9503C101.846 62.273 102.248 61.4879 102.346 60.5948C102.444 59.7016 102.493 57.0517 102.493 52.6548V39.945C102.493 36.8338 102.346 34.6158 102.042 33.281C101.738 31.9462 100.913 30.7685 99.5884 29.7478C98.2536 28.7172 96.5655 28.2069 94.5143 28.2069C92.1686 28.2069 89.9309 28.9037 87.8012 30.2974C85.6714 31.691 83.6496 33.7913 81.7652 36.5787V52.6548C81.7652 57.2088 81.8536 59.9863 82.0302 60.9775C82.2069 61.9786 82.7172 62.7245 83.5711 63.2152C84.425 63.7158 86.0051 63.9611 88.3115 63.9611V66.1792H68.3881V63.9611C70.6061 63.9611 72.147 63.7354 73.0107 63.2839C73.8744 62.8325 74.4142 62.1553 74.6203 61.2425C74.8264 60.3298 74.9344 57.4639 74.9344 52.6548V40.9069C74.9344 36.3235 74.846 33.5362 74.6693 32.5547C74.4927 31.5733 73.9823 30.8372 73.1285 30.3366C72.2746 29.8361 70.6945 29.5907 68.3881 29.5907V27.3727C71.9213 26.9899 75.5232 26.2538 79.2135 25.1546L79.2037 25.1742Z" fill="#111319"/>
<path d="M157.199 58.9655H158.976C158.691 64.4518 155.992 67.1999 150.888 67.1999C148.71 67.1999 146.982 66.6209 145.716 65.4627C144.45 64.3046 143.626 62.5871 143.233 60.3101C140.024 62.5871 137.099 64.3046 134.449 65.4627C131.799 66.6209 129.434 67.1901 127.353 67.1901C124.693 67.1901 122.397 66.4147 120.473 64.8837C118.55 63.3428 117.588 61.3014 117.588 58.7692C117.588 55.4618 119.197 52.5763 122.426 50.103C125.655 47.6298 130.101 45.2252 135.784 42.8796L143.243 39.8469V37.9232C143.243 35.1948 143.066 33.2221 142.713 32.0051C142.36 30.7881 141.447 29.6987 139.965 28.727C138.483 27.7652 136.549 27.2843 134.135 27.2843C129.326 27.2843 126.647 28.8939 126.097 32.0934C125.587 35.3616 124.232 37.0007 122.053 37.0007C120.1 37.0007 119.119 36.0683 119.119 34.2133C119.119 32.3878 120.414 30.4151 123.015 28.3148C125.616 26.2145 129.66 25.1644 135.146 25.1644C139.219 25.1644 142.379 25.8023 144.627 27.088C146.874 28.3737 148.356 29.8361 149.083 31.4653C149.809 33.1043 150.162 35.607 150.162 38.9734V54.9023C150.162 58.622 150.358 61.0168 150.741 62.0767C151.124 63.1367 151.958 63.6667 153.244 63.6667C155.364 63.6667 156.679 62.0964 157.189 58.9557L157.199 58.9655ZM143.243 42.114L138.002 44.234C129.718 47.6003 125.587 51.8402 125.587 56.9437C125.587 58.9655 126.117 60.5947 127.177 61.8314C128.236 63.068 129.611 63.6863 131.318 63.6863C132.83 63.6863 134.577 63.1858 136.559 62.1945C138.552 61.2032 140.779 59.7114 143.253 57.7191V42.1238L143.243 42.114Z" fill="#111319"/>
<path d="M170.959 25.1742H171.44C172.372 27.3236 172.834 30.0815 172.834 33.4577C174.983 30.6998 177.299 28.6289 179.792 27.2451C182.275 25.8612 182.795 25.1742 185.651 25.1742C188.89 25.1742 191.521 25.9103 193.542 27.3923C195.564 28.8645 196.977 31.0825 197.772 34.0367C200.206 31.0825 202.719 28.8743 205.281 27.3923C207.852 25.9201 210.463 25.1742 213.122 25.1742C216.175 25.1742 218.756 25.8809 220.876 27.2941C222.996 28.7074 224.272 30.3072 224.723 32.1131C225.175 33.9091 225.4 36.8142 225.4 40.8284V52.6647C225.4 57.248 225.489 60.0452 225.665 61.0364C225.842 62.0375 226.352 62.7638 227.206 63.2545C228.06 63.7354 229.64 63.9808 231.947 63.9808V66.1989H212.259V63.9808C214.339 63.9808 215.811 63.7452 216.665 63.284C217.519 62.8227 218.039 62.116 218.226 61.164C218.422 60.212 218.52 57.3854 218.52 52.6647V39.523C218.52 36.8633 218.363 34.8513 218.059 33.5067C217.755 32.1621 216.96 31.004 215.674 30.0422C214.388 29.0804 212.72 28.5995 210.669 28.5995C208.588 28.5995 206.488 29.3061 204.387 30.7194C202.287 32.1327 200.177 34.2624 198.057 37.1185V52.6647C198.057 56.8653 198.116 59.5054 198.224 60.585C198.332 61.6547 198.783 62.489 199.568 63.0877C200.354 63.6863 201.757 63.9808 203.779 63.9808V66.1989H184.719V63.9808C186.868 63.9808 188.37 63.755 189.224 63.3036C190.078 62.8521 190.608 62.1651 190.814 61.2327C191.02 60.3003 191.128 57.4443 191.128 52.6647V41.7411C191.128 38.2766 190.991 35.7641 190.716 34.2134C190.441 32.6529 189.617 31.3279 188.233 30.2189C186.849 29.1098 185.131 28.5602 183.08 28.5602C181.088 28.5602 181.215 29.208 179.144 30.4839C177.074 31.7696 174.963 33.6932 172.814 36.2646V52.6745C172.814 57.0027 172.873 59.7016 173.001 60.7616C173.128 61.8216 173.609 62.6264 174.443 63.1662C175.278 63.706 176.769 63.9808 178.919 63.9808V66.1989H159.623V63.9808C161.743 63.9808 163.225 63.7452 164.069 63.284C164.923 62.8227 165.443 62.1258 165.63 61.1935C165.826 60.2611 165.924 57.4247 165.924 52.6745V40.8774C165.924 36.3824 165.856 33.6343 165.708 32.6234C165.561 31.6125 165.061 30.847 164.217 30.3366C163.363 29.8263 161.832 29.5613 159.623 29.5613V27.3432C164.177 26.8917 167.946 26.1753 170.93 25.1742H170.959Z" fill="#111319"/>
<path d="M237.728 67.7691H235.853V23.6333C235.853 19.786 235.755 17.2931 235.539 16.1743C235.333 15.0554 234.803 14.2212 233.949 13.6716C233.095 13.1318 227.315 12.8569 225.195 12.8569V10.6389C227.089 10.6389 233.674 10.4131 236.334 9.96167C238.994 9.5102 240.809 9.06855 241.771 8.61708H242.782V31.1905C245.03 29.1687 247.307 27.6572 249.613 26.666C251.919 25.6747 254.265 25.1742 256.64 25.1742C262.323 25.1742 266.975 27.1469 270.596 31.0923C274.218 35.0377 276.034 40.0726 276.034 46.2067C276.034 52.3702 274.169 57.5032 270.449 61.6056C266.73 65.7179 261.901 67.7691 255.963 67.7691C253.038 67.7691 250.487 67.1606 248.288 65.9436C246.09 64.7266 244.254 62.9109 242.772 60.5064C240.692 62.5969 239.004 65.0113 237.718 67.7789L237.728 67.7691ZM242.782 34.0367V49.4847C242.782 53.4596 243.047 56.3254 243.577 58.0724C244.107 59.8194 245.383 61.4977 247.405 63.1072C249.427 64.707 251.782 65.5118 254.481 65.5118C258.623 65.5118 261.92 63.8139 264.374 60.4083C266.828 57.0026 268.055 52.115 268.055 45.7257C268.055 39.8567 266.906 35.3813 264.61 32.3191C262.313 29.257 259.261 27.7259 255.443 27.7259C253.264 27.7259 251.125 28.2461 249.014 29.2864C246.914 30.3268 244.833 31.9069 242.782 34.0268V34.0367Z" fill="#111319"/>
<path d="M289.861 35.2341C290.951 32.378 292.727 29.9833 295.181 28.0596C297.635 26.136 300.029 25.1742 302.375 25.1742C304.495 25.1742 306.163 25.8318 307.38 27.1469C308.597 28.462 309.206 29.8164 309.206 31.1905C309.206 32.1229 308.892 32.9178 308.264 33.595C307.635 34.2722 306.88 34.6059 305.977 34.6059C304.367 34.6059 303.15 33.4184 302.316 31.0433C301.737 29.4435 300.873 28.6387 299.715 28.6387C298.331 28.6387 296.682 29.5809 294.759 31.4555C292.835 33.33 291.599 35.2831 291.049 37.3049C290.509 39.3267 290.234 42.1042 290.234 45.6276V52.6548C290.234 56.8554 290.293 59.5053 290.401 60.5947C290.519 61.6842 290.97 62.5184 291.775 63.0975C292.58 63.6765 294.003 63.9611 296.054 63.9611H297.409V66.1792H276.474V63.9611H277.485C279.409 63.9611 280.783 63.6961 281.598 63.1662C282.412 62.6362 282.903 61.8903 283.07 60.9284C283.227 59.9666 283.305 57.2087 283.305 52.6548V41.535C283.305 37.2951 283.246 34.6452 283.138 33.5656C283.03 32.4958 282.569 31.6616 281.764 31.0629C280.96 30.474 279.537 30.1698 277.475 30.1698H276.465V28.0008C279.478 27.6474 283.423 26.6954 288.301 25.1644C289.233 27.6965 289.744 31.0531 289.842 35.2242L289.861 35.2341Z" fill="#111319"/>
<path d="M349.201 58.9655H350.977C350.693 64.4518 347.994 67.1999 342.89 67.1999C340.711 67.1999 338.984 66.6209 337.718 65.4627C336.452 64.3046 335.627 62.5871 335.235 60.3101C332.026 62.5871 329.101 64.3046 326.451 65.4627C323.801 66.6209 321.436 67.1901 319.355 67.1901C316.695 67.1901 314.399 66.4147 312.475 64.8837C310.551 63.3428 309.59 61.3014 309.59 58.7692C309.59 55.4618 311.199 52.5763 314.428 50.103C317.657 47.6298 322.103 45.2252 327.786 42.8796L335.245 39.8469V37.9232C335.245 35.1948 335.068 33.2221 334.715 32.0051C334.361 30.7881 333.449 29.6987 331.967 28.727C330.485 27.7652 328.551 27.2843 326.137 27.2843C321.328 27.2843 318.648 28.8939 318.099 32.0934C317.588 35.3616 316.234 37.0007 314.055 37.0007C312.102 37.0007 311.121 36.0683 311.121 34.2133C311.121 32.3584 312.416 30.4151 315.017 28.3148C317.618 26.2145 321.661 25.1644 327.148 25.1644C331.221 25.1644 334.381 25.8023 336.629 27.088C338.876 28.3737 340.358 29.8361 341.084 31.4653C341.811 33.1043 342.164 35.607 342.164 38.9734V54.9023C342.164 58.622 342.36 61.0168 342.743 62.0767C343.126 63.1367 343.96 63.6667 345.246 63.6667C347.366 63.6667 348.681 62.0964 349.191 58.9557L349.201 58.9655ZM335.245 42.1238L330.004 44.2438C321.72 47.6101 317.588 51.85 317.588 56.9536C317.588 58.9753 318.118 60.6046 319.178 61.8412C320.238 63.0778 321.612 63.6961 323.32 63.6961C324.832 63.6961 326.579 63.1956 328.561 62.2043C330.553 61.2131 332.781 59.7213 335.255 57.7289V42.1337L335.245 42.1238Z" fill="#111319"/>
</svg>
